<?xml version="1.0" encoding="UTF-8" standalone="no"?>
<svg
   xmlns:dc="http://purl.org/dc/elements/1.1/"
   xmlns:cc="http://creativecommons.org/ns#"
   xmlns:rdf="http://www.w3.org/1999/02/22-rdf-syntax-ns#"
   xmlns:svg="http://www.w3.org/2000/svg"
   xmlns="http://www.w3.org/2000/svg"
   viewBox="0 0 449.14667 98.639999"
   height="98.639999"
   width="449.14667"
   xml:space="preserve"
   id="svg2"
   version="1.1"><metadata
     id="metadata8"><rdf:RDF><cc:Work
         rdf:about=""><dc:format>image/svg+xml</dc:format><dc:type
           rdf:resource="http://purl.org/dc/dcmitype/StillImage" /></cc:Work></rdf:RDF></metadata><defs
     id="defs6" /><g
     transform="matrix(1.3333333,0,0,-1.3333333,0,98.64)"
     id="g10"><g
       transform="scale(0.1)"
       id="g12"><path
         id="path14"
         style="fill:#231f20;fill-opacity:1;fill-rule:nonzero;stroke:none"
         d="m 1041.37,114.852 h 4.38 V 66.1016 h -4.38 c -1.22,5.5468 -3.44,10.4297 -6.64,14.6797 C 1022.5,67.043 1006.88,60.168 987.875,60.168 c -20.094,0 -36.512,6.3437 -49.258,19.0586 -12.75,12.6953 -19.121,29.5034 -19.121,50.4104 0,13.73 2.938,26.652 8.805,38.781 5.871,12.117 14.058,21.121 24.574,26.992 10.508,5.879 22.043,8.817 34.602,8.817 10.378,0 19.783,-2.129 28.213,-6.387 8.43,-4.246 14.72,-8.965 18.89,-14.141 2.96,5.801 4.76,11.809 5.39,18.028 h 4.53 l 1.25,-52.657 h -4.38 c -3.07,18.703 -9.34,31.711 -18.82,39.024 -9.46,7.316 -20.14,10.976 -32.038,10.976 -14.559,0 -26.133,-5.918 -34.707,-17.742 -8.582,-11.828 -12.871,-28.75 -12.871,-50.773 0,-20.848 4.683,-36.8362 14.046,-47.9495 9.368,-11.1016 21.024,-16.6602 34.969,-16.6602 7.449,0 15.071,1.8164 22.861,5.4297 7.8,3.6328 13.96,9.7656 18.52,18.4102 4.54,8.6406 7.22,16.9998 8.04,25.0668" /><path
         id="path16"
         style="fill:#231f20;fill-opacity:1;fill-rule:nonzero;stroke:none"
         d="m 1254.59,104.258 c 0,-14.8635 2.43,-25.2736 7.28,-31.2424 4.84,-5.9648 11.64,-8.9453 20.38,-8.9453 8.95,0 15.79,2.9805 20.54,8.9453 4.74,5.9688 7.12,16.3789 7.12,31.2424 0,14.726 -2.36,25.222 -7.07,31.492 -4.71,6.281 -11.58,9.414 -20.59,9.414 -8.94,0 -15.79,-3.125 -20.54,-9.355 -4.74,-6.239 -7.12,-16.758 -7.12,-31.551 z m -17.03,0.515 c 0,12.813 4.3,23.528 12.9,32.149 8.6,8.613 19.18,12.93 31.74,12.93 12.63,0 23.24,-4.325 31.84,-12.989 8.6,-8.652 12.9,-19.343 12.9,-32.09 0,-14.1089 -4.37,-25.2027 -13.11,-33.2808 -8.73,-8.0742 -19.27,-12.1094 -31.63,-12.1094 -12.35,0 -22.88,4.1016 -31.58,12.3164 -8.71,8.211 -13.06,19.2383 -13.06,33.0738" /><path
         id="path18"
         style="fill:#231f20;fill-opacity:1;fill-rule:nonzero;stroke:none"
         d="m 1533.96,149.852 h 2.77 c 1.57,-4.227 2.45,-9.981 2.65,-17.274 4.91,5.789 10.05,10.117 15.43,12.977 5.38,2.863 11.01,4.297 16.86,4.297 6.67,0 12.14,-1.395 16.4,-4.2 4.26,-2.793 7,-6.23 8.22,-10.281 1.23,-4.062 1.84,-9.98 1.84,-17.766 V 91.4063 c 0,-9.6875 0.18,-15.5977 0.52,-17.7071 0.34,-2.1172 1.41,-3.6992 3.23,-4.7656 1.81,-1.0547 5.15,-1.582 10,-1.582 V 62.668 h -42.96 v 4.6836 h 1.95 c 4.95,0 8.18,0.7148 9.69,2.1484 1.52,1.4375 2.37,3.1055 2.58,5.0195 0.2,1.9141 0.31,7.5391 0.31,16.8985 v 27.039 c 0,6.621 -0.33,11.356 -0.97,14.188 -0.65,2.832 -2.39,5.332 -5.22,7.519 -2.83,2.188 -6.43,3.281 -10.78,3.281 -4.98,0 -9.74,-1.484 -14.27,-4.461 -4.53,-2.968 -8.81,-7.433 -12.83,-13.379 V 91.418 c 0,-9.6992 0.19,-15.6094 0.57,-17.7188 0.37,-2.1172 1.46,-3.6992 3.27,-4.7656 1.8,-1.0547 5.16,-1.582 10.07,-1.582 V 62.668 h -42.5 v 4.6836 c 4.7,0 7.97,0.4804 9.82,1.4375 1.84,0.957 2.98,2.4023 3.42,4.3437 0.45,1.9531 0.67,8.0469 0.67,18.2852 v 24.996 c 0,9.758 -0.19,15.684 -0.56,17.766 -0.39,2.078 -1.47,3.652 -3.28,4.715 -1.8,1.054 -5.16,1.582 -10.07,1.582 v 4.687 c 7.55,0.82 15.27,2.383 23.17,4.688" /><path
         id="path20"
         style="fill:#231f20;fill-opacity:1;fill-rule:nonzero;stroke:none"
         d="M 1795.11,60.0078 V 87.668 h 4.06 c 4.64,-15.9414 12.92,-23.9102 24.87,-23.9102 5.18,0 9.05,1.5625 11.61,4.707 2.56,3.1368 3.84,6.5821 3.84,10.3321 0,4.3672 -1.38,7.9414 -4.13,10.7461 -2.83,2.7929 -8.27,6.1679 -16.32,10.1133 -8.47,4.1597 -14.55,8.2417 -18.23,12.2657 -3.7,3.957 -5.54,8.828 -5.54,14.621 0,5.516 1.98,10.793 5.95,15.793 3.97,5.016 9.55,7.516 16.73,7.516 7.32,0 13.37,-2.911 18.17,-8.731 1.01,1.027 2.35,3.516 3.99,7.481 h 3.75 v -25.938 h -3.75 c -1.36,6.152 -4.02,11.438 -7.96,15.859 -3.93,4.426 -8.57,6.641 -13.9,6.641 -4.11,0 -7.43,-1.258 -9.96,-3.769 -2.54,-2.52 -3.8,-5.43 -3.8,-8.758 0,-3.672 1.39,-6.828 4.21,-9.485 2.73,-2.714 7.97,-5.808 15.7,-9.285 11.63,-5.246 18.74,-10.363 21.35,-15.3318 2.59,-5.0508 3.89,-9.8829 3.89,-14.5118 0,-7.2968 -2.41,-13.2226 -7.21,-17.7929 -4.81,-4.5625 -10.87,-6.8477 -18.17,-6.8477 -7.71,0 -14.57,3.1563 -20.57,9.4727 -1.85,-2.0586 -3.35,-5.0078 -4.52,-8.8477 h -4.06" /><path
         id="path22"
         style="fill:#231f20;fill-opacity:1;fill-rule:nonzero;stroke:none"
         d="M 2117.9,146.57 V 91.543 c 0,-9.1602 0.14,-14.8946 0.41,-17.2188 0.27,-2.3242 1.27,-4.0703 3.03,-5.2344 1.74,-1.1601 4.86,-1.7382 9.37,-1.7382 V 62.668 c -10.43,-0.1289 -18.02,-1.1758 -22.83,-3.125 h -1.23 c -2.17,3.7383 -3.3,10.1914 -3.44,19.375 -4.18,-6.4766 -8.94,-11.3516 -14.31,-14.6328 -5.37,-3.2618 -11.31,-4.9024 -17.82,-4.9024 -5.6,0 -10.56,1.2813 -14.86,3.8399 -4.32,2.5586 -7.28,5.6718 -8.89,9.3632 -1.6,3.6836 -2.4,9.25 -2.4,16.6797 v 28.5664 c 0,9.688 -0.17,15.606 -0.51,17.754 -0.35,2.148 -1.42,3.738 -3.24,4.766 -1.81,1.023 -5.15,1.531 -10,1.531 v 4.687 h 28.44 V 88.4648 c 0,-5.7421 0.33,-9.9023 1.01,-12.4882 0.69,-2.5899 2.45,-4.8555 5.26,-6.8086 2.81,-1.9336 6.07,-2.9102 9.76,-2.9102 5.28,0 10.32,1.7188 15.12,5.1602 4.79,3.4336 8.07,7.0859 9.83,10.9336 1.73,3.8476 2.61,9.3593 2.61,16.5234 v 18.945 c 0,9.141 -0.09,14.707 -0.31,16.692 -0.19,1.98 -1.07,3.699 -2.62,5.164 -1.54,1.476 -4.74,2.207 -9.61,2.207 h -2.14 v 4.687 h 29.37" /><path
         id="path24"
         style="fill:#231f20;fill-opacity:1;fill-rule:nonzero;stroke:none"
         d="M 2338.35,203.602 V 91.4453 c 0,-8.957 0.12,-14.5898 0.35,-16.914 0.24,-2.3243 1.21,-4.1016 2.93,-5.3321 1.7,-1.2304 4.73,-1.8476 9.1,-1.8476 h 2.46 V 62.668 h -44.84 v 4.6836 h 2.87 c 4.12,0 7.03,0.5664 8.79,1.6914 1.74,1.125 2.79,2.7148 3.12,4.7656 0.36,2.0508 0.53,7.9297 0.53,17.625 v 83.0194 c 0,8.809 -0.8,14.363 -2.38,16.649 -1.56,2.296 -5.41,3.437 -11.52,3.437 v 4.688 c 4.16,0 9.06,0.488 14.7,1.457 5.63,0.976 9.51,1.953 11.62,2.918 h 2.27" /><path
         id="path26"
         style="fill:#231f20;fill-opacity:1;fill-rule:nonzero;stroke:none"
         d="m 2584.11,142.039 h -25.15 V 91.3867 c 0,-7.7734 0.33,-13.0078 1.01,-15.7031 0.68,-2.6953 2.13,-4.8633 4.34,-6.4961 2.2,-1.6406 4.57,-2.4609 7.07,-2.4609 4.9,0 9.14,2.8164 12.75,8.4414 l 3.26,-1.9571 c -2.11,-4.5195 -5.23,-7.9296 -9.35,-10.2343 -4.12,-2.2852 -8.3,-3.4336 -12.52,-3.4336 -4.9,0 -9.22,1.4414 -12.93,4.3515 -3.71,2.8907 -6.04,6.2891 -6.96,10.1758 -0.91,3.8906 -1.36,10.7149 -1.36,20.4805 v 47.4882 h -12.11 v 4.609 c 5.58,0.137 10.58,2.5 15.02,7.09 4.43,4.59 7.26,11.028 8.49,19.317 h 3.29 v -26.328 h 25.15 v -4.688" /><path
         id="path28"
         style="fill:#231f20;fill-opacity:1;fill-rule:nonzero;stroke:none"
         d="m 2776.18,192.871 c 0,2.93 1.06,5.449 3.15,7.559 2.07,2.117 4.59,3.172 7.54,3.172 2.94,0 5.42,-1.055 7.5,-3.172 2.05,-2.11 3.06,-4.629 3.06,-7.559 0,-3 -1.01,-5.547 -3.06,-7.668 -2.08,-2.109 -4.56,-3.164 -7.5,-3.164 -2.95,0 -5.47,1.055 -7.54,3.164 -2.09,2.121 -3.15,4.668 -3.15,7.668 z m 19.85,-43.019 V 91.4063 c 0,-8.9375 0.13,-14.5704 0.41,-16.8868 0.27,-2.3242 1.27,-4.1015 2.98,-5.332 1.7,-1.2187 4.75,-1.8359 9.14,-1.8359 h 2.15 V 62.668 h -45.31 v 4.6836 h 3.5 c 4.86,0 8.04,0.7031 9.51,2.1015 1.48,1.3946 2.34,3.0664 2.58,5.0078 0.23,1.9454 0.35,7.5899 0.35,16.9336 v 25.3825 c 0,9.825 -0.45,15.828 -1.39,18.008 -0.92,2.176 -2.15,3.543 -3.69,4.09 -1.54,0.547 -4.24,0.82 -8.09,0.82 h -2.77 v 4.688 c 12.21,1.242 21.66,3.066 28.38,5.469 h 2.25" /><path
         id="path30"
         style="fill:#231f20;fill-opacity:1;fill-rule:nonzero;stroke:none"
         d="m 3013.84,149.852 h 2.75 c 1.56,-4.227 2.46,-9.981 2.66,-17.274 4.9,5.789 10.06,10.117 15.43,12.977 5.39,2.863 10.99,4.297 16.85,4.297 6.68,0 12.15,-1.395 16.41,-4.2 4.26,-2.793 6.99,-6.23 8.22,-10.281 1.23,-4.062 1.84,-9.98 1.84,-17.766 V 91.4063 c 0,-9.6875 0.17,-15.5977 0.53,-17.7071 0.33,-2.1172 1.4,-3.6992 3.22,-4.7656 1.81,-1.0547 5.15,-1.582 10,-1.582 V 62.668 h -42.97 v 4.6836 h 1.97 c 4.94,0 8.17,0.7148 9.69,2.1484 1.5,1.4375 2.36,3.1055 2.56,5.0195 0.21,1.9141 0.31,7.5391 0.31,16.8985 v 27.039 c 0,6.621 -0.31,11.356 -0.96,14.188 -0.66,2.832 -2.4,5.332 -5.21,7.519 -2.83,2.188 -6.43,3.281 -10.8,3.281 -4.96,0 -9.73,-1.484 -14.26,-4.461 -4.53,-2.968 -8.81,-7.433 -12.83,-13.379 V 91.418 c 0,-9.6992 0.19,-15.6094 0.56,-17.7188 0.38,-2.1172 1.47,-3.6992 3.29,-4.7656 1.79,-1.0547 5.15,-1.582 10.05,-1.582 V 62.668 h -42.5 v 4.6836 c 4.71,0 7.99,0.4804 9.83,1.4375 1.83,0.957 2.99,2.4023 3.42,4.3437 0.45,1.9531 0.66,8.0469 0.66,18.2852 v 24.996 c 0,9.758 -0.18,15.684 -0.57,17.766 -0.37,2.078 -1.46,3.652 -3.26,4.715 -1.81,1.054 -5.15,1.582 -10.08,1.582 v 4.687 c 7.56,0.82 15.28,2.383 23.19,4.688" /><path
         id="path32"
         style="fill:#231f20;fill-opacity:1;fill-rule:nonzero;stroke:none"
         d="m 3292.16,116.863 c 0,-8.789 1.81,-15.234 5.45,-19.3161 3.61,-4.0899 8.24,-6.1289 13.85,-6.1289 5.19,0 9.66,2.0273 13.39,6.0703 3.73,4.0627 5.59,11.0977 5.59,21.1137 0,10.078 -1.97,17.023 -5.94,20.839 -3.98,3.809 -8.46,5.723 -13.46,5.723 -6.28,0 -11.01,-2.351 -14.16,-7.051 -3.14,-4.707 -4.72,-11.785 -4.72,-21.25 z m 46.21,22.297 c 5.8,6.61 11.7,9.91 17.66,9.91 3.28,0 5.82,-0.886 7.63,-2.675 1.82,-1.778 2.72,-3.731 2.72,-5.86 0,-4.512 -2.03,-6.777 -6.08,-6.777 -2.24,0 -4.18,1.406 -5.8,4.219 -1.52,2.597 -3.1,3.906 -4.76,3.906 -2.62,0 -5.53,-1.797 -8.7,-5.371 3.56,-5.606 5.34,-11.543 5.34,-17.832 0,-8.192 -2.95,-15.43 -8.85,-21.7073 -5.88,-6.3594 -15.82,-9.7657 -29.81,-10.2461 -14.55,-0.4766 -21.81,-3.4063 -21.81,-8.7891 0,-2.5195 1.64,-4.2969 4.94,-5.3125 3.22,-1.0937 10,-1.9141 20.33,-2.457 11.31,-0.5508 20,-1.5938 26.1,-3.125 6.11,-1.5469 10.97,-4.6407 14.59,-9.3008 3.63,-4.6484 5.44,-10.1953 5.44,-16.6211 0,-9.0313 -3.69,-16.3164 -11.07,-21.8633 -7.38,-5.539 -18.01,-8.3125 -31.87,-8.3125 -12.72,0 -22.91,2.461 -30.57,7.3828 -7.66,4.9219 -11.49,11.1524 -11.49,18.6719 0,4.1719 1.1,7.5977 3.29,10.2539 2.18,2.6758 5.29,4.0039 9.33,4.0039 1.1,0 2.09,-0.1719 2.97,-0.5078 -4.24,-4.6484 -6.37,-9.5703 -6.37,-14.7656 0,-6.0156 2.84,-10.9961 8.48,-14.9219 5.64,-3.9336 14.06,-5.8945 25.29,-5.8945 9.98,0 17.78,2 23.34,6.0039 5.59,4.0117 8.36,9.1289 8.36,15.3594 0,6.8554 -2.5,11.6796 -7.48,14.4843 -5,2.7422 -13.89,4.3828 -26.68,4.9297 -14.72,0.6172 -24.26,2.4219 -28.63,5.4219 -4.4,2.9375 -6.58,6.7187 -6.58,11.3555 0,8.9257 6.27,14.5507 18.79,16.875 -6.49,3.8203 -11.37,8.1836 -14.65,13.0973 -3.28,4.91 -4.92,10.399 -4.92,16.473 0,8.516 3.37,15.762 10.09,21.73 6.74,5.965 14.71,8.954 23.95,8.954 11.4,0 20.57,-3.563 27.48,-10.692" /><path
         id="path34"
         style="fill:#000100;fill-opacity:1;fill-rule:nonzero;stroke:none"
         d="m 3367.25,321.902 v 4.18 H 916.859 v -8.379 H 3367.25 v 4.199" /><path
         id="path36"
         style="fill:#231f20;fill-opacity:1;fill-rule:nonzero;stroke:none"
         d="M 1018.56,606.531 V 482.84 h 54.11 c 10.92,0 19.12,3.887 24.59,11.64 3.77,5.293 6.56,12.305 8.36,21.036 1.81,8.75 2.51,18.398 2.16,28.984 -0.64,22.285 -4.22,38.184 -10.72,47.734 -6.5,9.532 -16.93,14.297 -31.3,14.297 z m 0,120.84 v -114.57 h 52.6 c 12.3,0 21.29,4.668 26.98,14.023 5.7,9.356 8.55,23.731 8.55,43.164 0,9.356 -0.94,17.891 -2.81,25.645 -1.86,7.754 -4.44,13.652 -7.72,17.715 -3.83,4.922 -8.63,8.476 -14.41,10.703 -5.78,2.207 -12.95,3.32 -21.53,3.32 z m -98.415,6.836 h 147.695 c 14.04,0 27.27,-1.68 39.67,-5 12.39,-3.32 23.2,-7.988 32.4,-14.004 9.22,-6.035 16.39,-13.144 21.55,-21.308 5.15,-8.184 7.73,-16.954 7.73,-26.309 0,-9.336 -2.54,-17.383 -7.6,-24.16 -3.84,-5.41 -8.96,-10.528 -15.41,-15.41 -6.42,-4.844 -11.97,-7.891 -16.64,-9.121 l -31.46,-8.301 v -0.742 l 36.54,-10.528 c 6.11,-2.226 12.21,-5.761 18.28,-10.625 6.06,-4.863 11.02,-10.195 14.84,-15.976 5.02,-7.149 7.54,-16.075 7.54,-26.778 0,-19.843 -8.22,-35.957 -24.65,-48.398 -7.92,-6.289 -18.18,-11.387 -30.76,-15.332 -12.58,-3.945 -24.74,-5.899 -36.5,-5.899 H 920.559 v 4.61 h 6.699 l 29.121,24.179 v 199.571 l -29.668,24.902 h -6.566 v 4.629" /><path
         id="path38"
         style="fill:#231f20;fill-opacity:1;fill-rule:nonzero;stroke:none"
         d="M 1407.33,657.332 1367,562.176 h 85.98 z m 28.83,80.156 h 5.06 l 110.03,-232.695 21.88,-23.848 h 5.33 v -4.629 h -126.03 v 4.629 h 6.43 l 20.78,24.59 -23.79,49.883 H 1364 l -3.41,-7.949 20.49,-66.524 h 6.43 v -4.629 h -75.31 v 4.629 h 5.33 l 37.46,66.524 81.17,190.019" /><path
         id="path40"
         style="fill:#231f20;fill-opacity:1;fill-rule:nonzero;stroke:none"
         d="M 1816.78,727.996 V 603.738 h 46.99 c 11.93,0 21.78,2.246 29.57,6.723 7.78,4.488 13.61,11.344 17.48,20.562 3.87,9.219 5.8,20.762 5.8,34.668 0,41.543 -18.39,62.305 -55.17,62.305 z m -98.6,6.113 h 162.43 c 14.21,0 27.98,-1.875 41.28,-5.625 13.31,-3.75 23.89,-8.711 31.72,-14.863 7.95,-6.016 14.12,-13.418 18.56,-22.207 4.43,-8.789 6.64,-17.969 6.64,-27.539 0,-10.195 -2.36,-19.375 -7.11,-27.559 -4.75,-8.164 -11.76,-15.078 -21.07,-20.722 -9.3,-5.645 -20.86,-10.02 -34.67,-13.086 -13.83,-3.067 -29.26,-4.785 -46.31,-5.156 v -0.743 c 4,-2.343 7.32,-3.945 9.96,-4.785 6.56,-2.363 13.1,-4.082 19.62,-5.195 6.51,-1.094 12.51,-1.66 17.98,-1.66 h 17.91 l 34.24,-78.711 30.48,-25.313 h 8.07 v -4.629 h -96.05 l -52.6,120.664 h -42.48 v -91.074 l 30.47,-24.961 h 6.13 v -4.629 h -135.74 v 4.629 h 6.7 l 29.94,25.313 v 198.691 l -29.94,24.531 h -6.16 v 4.629" /><path
         id="path42"
         style="fill:#231f20;fill-opacity:1;fill-rule:nonzero;stroke:none"
         d="M 2148.89,734.109 H 2284 v -4.629 h -6.97 l -29.39,-24.179 V 593.504 l 103.63,111.074 -36.09,24.902 h -6.7 v 4.629 h 98.16 v -4.629 h -6.43 l -40.6,-24.55 -45.8,-49.434 91.74,-149.648 33.36,-24.903 h 6.97 v -4.629 h -143.56 v 4.629 h 6.7 l 17.64,24.903 -60.84,98.535 -18.18,-19.922 v -78.613 l 30.21,-24.903 h 6.15 v -4.629 h -135.11 v 4.629 h 6.42 l 29.67,24.903 V 704.93 l -29.67,24.55 h -6.42 v 4.629" /><path
         id="path44"
         style="fill:#231f20;fill-opacity:1;fill-rule:nonzero;stroke:none"
         d="m 2727.7,731.59 c -13.77,0 -24.89,-2.539 -33.32,-7.578 -8.44,-5.059 -15.08,-13.008 -19.91,-23.848 -3.38,-8.125 -5.88,-17.187 -7.52,-27.168 -1.29,-8.379 -2.3,-19.609 -3.08,-33.73 -0.78,-14.102 -1.17,-28.985 -1.17,-44.629 0,-8.496 0.29,-18.145 0.89,-28.926 0.59,-10.781 1.43,-19.805 2.52,-27.07 3.03,-17.754 8.73,-31.25 17.11,-40.469 9.59,-11.348 24.22,-17.012 43.93,-17.012 12.32,0 22.65,2.656 30.99,7.949 8.36,5.293 14.95,13.36 19.79,24.219 3.11,6.641 5.61,15.449 7.52,26.426 1.19,7.383 2.15,17.91 2.87,31.601 0.74,13.672 1.09,28.145 1.09,43.438 0,28.945 -1.97,51.914 -5.95,68.926 -3.97,16.992 -10.39,29.238 -19.28,36.679 -8.91,7.461 -21.05,11.192 -36.48,11.192 z m -4.52,8.223 c 22.35,0 42.95,-4.649 61.82,-13.926 18.87,-9.297 34.79,-22.735 47.73,-40.313 8.48,-11.328 14.98,-23.75 19.54,-37.226 4.57,-13.477 6.83,-27.188 6.83,-41.094 0,-24.258 -6.01,-46.641 -18.05,-67.129 -12.03,-20.508 -28.34,-36.758 -48.94,-48.77 -20.59,-11.992 -42.87,-18.007 -66.86,-18.007 -23.51,0 -45.52,6.015 -66.03,18.007 -20.51,12.012 -36.8,28.165 -48.87,48.481 -12.09,20.309 -18.12,42.105 -18.12,65.367 0,17.481 3.49,34.375 10.47,50.684 6.97,16.308 16.6,30.801 28.9,43.496 12.31,12.676 26.37,22.578 42.17,29.726 15.82,7.129 32.28,10.704 49.41,10.704" /><path
         id="path46"
         style="fill:#231f20;fill-opacity:1;fill-rule:nonzero;stroke:none"
         d="m 3011.37,734.109 h 136.46 v -4.629 h -6.97 l -27.48,-24.55 52.38,-132.637 51.27,161.816 h 8.07 l 63.59,-162.441 33.63,108.027 -32.26,49.785 h -6.7 v 4.629 h 85.19 v -4.629 h -6.15 l -34.47,-49.472 -62.75,-207.5 h -7.25 l -64.69,164.355 -52.38,-164.355 h -6.7 l -89.43,232.051 -26.53,24.921 h -6.83 v 4.629" /><path
         id="path48"
         style="fill:none;stroke:#000000;stroke-width:10;stroke-linecap:butt;stroke-linejoin:miter;stroke-miterlimit:4;stroke-dasharray:none;stroke-opacity:1"
         d="m 727.141,112.637 c 0,-55.0003 -45,-100.0003 -100,-100.0003 H 105 c -55,0 -100,45 -100,100.0003 v 522.144 c 0,55 45,100 100,100 h 522.141 c 55,0 100,-45 100,-100 z" /><path
         id="path50"
         style="fill:#000000;fill-opacity:1;fill-rule:nonzero;stroke:none"
         d="m 382.141,666.977 v 4.195 H 106.305 v -8.391 h 275.836 v 4.196" /><path
         id="path52"
         style="fill:#000000;fill-opacity:1;fill-rule:nonzero;stroke:none"
         d="m 106.305,89.7266 v -4.1914 h 270.394 v 8.3906 H 106.305 v -4.1992" /><path
         id="path54"
         style="fill:#000000;fill-opacity:1;fill-rule:nonzero;stroke:none"
         d="m 416.207,376.762 v 4.199 H 106.305 v -8.387 h 309.902 v 4.188" /><path
         id="path56"
         style="fill:#000000;fill-opacity:1;fill-rule:nonzero;stroke:none"
         d="m 192.039,121.816 h 302.965 v 8.387 H 209.883 c -2.809,-1.414 -5.66,-2.84 -8.531,-4.199 -3.075,-1.445 -6.161,-2.84 -9.313,-4.188" /><path
         id="path58"
         style="fill:#000000;fill-opacity:1;fill-rule:nonzero;stroke:none"
         d="m 325.66,234.832 v -4.199 h 290.887 v 8.398 H 325.66 v -4.199" /><path
         id="path60"
         style="fill:#000000;fill-opacity:1;fill-rule:nonzero;stroke:none"
         d="m 313.793,266.914 h 294.066 v 8.387 H 310.691 c 0.579,-1.387 1.129,-2.781 1.664,-4.168 0.497,-1.426 0.965,-2.813 1.438,-4.219" /><path
         id="path62"
         style="fill:#000000;fill-opacity:1;fill-rule:nonzero;stroke:none"
         d="m 284.348,303.191 h 262.73 v 8.391 H 277.031 c 1.266,-1.387 2.489,-2.785 3.727,-4.191 1.215,-1.387 2.426,-2.782 3.59,-4.2" /><path
         id="path64"
         style="fill:#000000;fill-opacity:1;fill-rule:nonzero;stroke:none"
         d="m 221.063,339.461 h 265.261 v 8.387 H 205.305 c 2.785,-1.348 5.492,-2.754 8.187,-4.196 2.547,-1.347 5.082,-2.754 7.571,-4.191" /><path
         id="path66"
         style="fill:#000000;fill-opacity:1;fill-rule:nonzero;stroke:none"
         d="m 309.945,198.543 c -0.566,-1.395 -1.23,-2.781 -1.843,-4.188 h 299.757 v 4.188 4.211 H 311.617 c -0.543,-1.406 -1.066,-2.813 -1.672,-4.211" /><path
         id="path68"
         style="fill:#000000;fill-opacity:1;fill-rule:nonzero;stroke:none"
         d="m 271.188,158.086 h 278.07 v 8.398 H 279.141 c -1.266,-1.425 -2.52,-2.824 -3.832,-4.191 -1.321,-1.426 -2.743,-2.813 -4.121,-4.207" /><path
         id="path70"
         style="fill:#000000;fill-opacity:1;fill-rule:nonzero;stroke:none"
         d="m 495.004,408.848 v 8.386 H 371.453 c -4.195,-2.89 -8.48,-5.683 -12.93,-8.386 h 136.481" /><path
         id="path72"
         style="fill:#000000;fill-opacity:1;fill-rule:nonzero;stroke:none"
         d="m 210.23,413.043 c -2.808,-1.445 -5.621,-2.832 -8.507,-4.195 H 316.02 c 8.257,2.496 6.398,5.218 14.269,8.386 H 218.125 c -2.617,-1.445 -5.234,-2.832 -7.895,-4.191" /><path
         id="path74"
         style="fill:#000000;fill-opacity:1;fill-rule:nonzero;stroke:none"
         d="m 321.207,521.871 c 0.02,-0.465 0.066,-0.914 0.066,-1.355 0,-0.957 -0.097,-1.914 -0.117,-2.84 h 104.153 c 0,0.097 0.035,0.164 0.035,0.277 l 0.086,2.563 c 0,0 -0.141,3.984 -0.176,4.902 -0.012,0.227 -0.024,0.437 -0.051,0.645 h -104.14 c 0.054,-1.375 0.136,-2.801 0.144,-4.192" /><path
         id="path76"
         style="fill:#000000;fill-opacity:1;fill-rule:nonzero;stroke:none"
         d="m 459.98,526.063 c 0,-0.028 0,-0.067 0,-0.11 l 0.133,-3.984 -0.011,0.312 0.074,-1.113 c 0,0 -0.074,-2.469 -0.11,-3.492 h 156.481 v 4.195 4.192 H 459.98" /><path
         id="path78"
         style="fill:#000000;fill-opacity:1;fill-rule:nonzero;stroke:none"
         d="m 310.625,558.164 c 0.547,-1.418 1.137,-2.793 1.641,-4.215 h 102.937 c -0.324,0.801 -0.754,1.813 -0.754,1.813 -0.976,2.222 -2.136,4.383 -3.25,6.578 H 308.887 c 0.617,-1.395 1.179,-2.801 1.738,-4.176" /><path
         id="path80"
         style="fill:#000000;fill-opacity:1;fill-rule:nonzero;stroke:none"
         d="m 451.992,553.949 h 155.867 v 8.391 H 449.082 c 0.492,-1.281 1.078,-2.727 1.078,-2.727 0.699,-1.871 1.231,-3.777 1.832,-5.664" /><path
         id="path82"
         style="fill:#000000;fill-opacity:1;fill-rule:nonzero;stroke:none"
         d="m 276.875,594.43 c 1.27,-1.387 2.484,-2.785 3.711,-4.2 h 97.789 c -2.914,2.856 -5.855,5.672 -9.004,8.387 h -96.562 c 1.39,-1.402 2.742,-2.773 4.066,-4.187" /><path
         id="path84"
         style="fill:#000000;fill-opacity:1;fill-rule:nonzero;stroke:none"
         d="m 547.078,590.23 v 8.387 H 417.387 c 2.34,-2.773 4.668,-5.531 6.824,-8.387 h 122.867" /><path
         id="path86"
         style="fill:#000000;fill-opacity:1;fill-rule:nonzero;stroke:none"
         d="m 204.945,630.688 c 2.789,-1.352 5.485,-2.758 8.203,-4.188 h 110.055 c -8.578,3.172 -7.387,5.957 -16.383,8.387 H 195.898 c 3.051,-1.364 6.079,-2.754 9.047,-4.199" /><path
         id="path88"
         style="fill:#000000;fill-opacity:1;fill-rule:nonzero;stroke:none"
         d="m 486.324,626.5 v 8.387 H 354.031 c 4.598,-2.696 9.078,-5.492 13.426,-8.387 h 118.867" /><path
         id="path90"
         style="fill:#000000;fill-opacity:1;fill-rule:nonzero;stroke:none"
         d="m 311.672,485.59 c -0.527,-1.402 -1.047,-2.793 -1.637,-4.195 h 102.516 c 0.984,2.105 2.039,4.195 2.929,6.328 0,0 0.442,1.066 0.809,2.062 H 313.27 c -0.497,-1.402 -1.063,-2.793 -1.598,-4.195" /><path
         id="path92"
         style="fill:#000000;fill-opacity:1;fill-rule:nonzero;stroke:none"
         d="m 450.113,481.395 h 157.746 v 8.39 H 452.895 c -0.571,-1.781 -1.02,-3.566 -1.633,-5.347 0,0 -0.633,-1.657 -1.149,-3.043" /><path
         id="path94"
         style="fill:#000000;fill-opacity:1;fill-rule:nonzero;stroke:none"
         d="m 549.258,445.121 v 8.391 H 426.309 c -2.075,-2.844 -4.301,-5.617 -6.559,-8.391 h 129.508" /><path
         id="path96"
         style="fill:#000000;fill-opacity:1;fill-rule:nonzero;stroke:none"
         d="m 279.273,449.313 c -1.253,-1.403 -2.492,-2.805 -3.8,-4.192 h 97.054 c 3.039,2.715 5.848,5.547 8.645,8.391 h -98.164 c -1.211,-1.426 -2.481,-2.813 -3.735,-4.199" /></g></g></svg>